<svg id="Layer_1" data-name="Layer 1" xmlns="http://www.w3.org/2000/svg" viewBox="0 0 924 516.24"><defs><style>.cls-1{fill:#282828;}.cls-2{fill:#fff;}.cls-3{fill:#fdcf09;}.cls-4{fill:#939393;}</style></defs><path class="cls-1" d="M1046.2,795.48c0,.88,0,1.76,0,2.64h59.52c0-.64,0-1.28,0-1.92V649.89q0-131.8,0-263.6c0-2.89.47-2.33-2.39-3.16q-12.2-3.57-24.54-6.51c-20.46-4.91-41.06-8.9-62.14-10a232.25,232.25,0,0,0-40,1,162.14,162.14,0,0,0-42.14,10.67c-36,14.71-61.65,39.81-76.16,76a158.87,158.87,0,0,0-10.94,51.07c-.92,17.4-.13,34.72,3.93,51.69,11.17,46.64,38.9,79.17,83.72,96.7,17.09,6.69,35,9.94,53.29,11a202.88,202.88,0,0,0,50.35-3.35l7.58-1.48Zm-1.6-192.12c-10.06,2.58-20.1,5.21-30.43,6.51a99.77,99.77,0,0,1-18,.49,109.33,109.33,0,0,1-28.49-4.92q-45.06-14.88-55.91-61.09c-3.07-13.18-3.58-26.56-2.58-40a101.31,101.31,0,0,1,8.82-35.61c7.23-15.55,17.83-28.14,32.89-36.7a84,84,0,0,1,27.7-9.55c11.19-1.9,22.44-1.83,33.72-1.1a182.62,182.62,0,0,1,31.7,4.86c2.14.53,2.14.53,2.14,2.83V599.8a11.52,11.52,0,0,0,0,1.44C1046.39,602.51,1045.83,603,1044.6,603.36Z" transform="translate(-498 -281.88)"/><path class="cls-1" d="M1422,662.82c-23.44,0-46.88,0-70.31.07-1.59,0-2.26-.79-3-1.85q-26.55-36.57-53.13-73.15-10.14-14-20.31-27.92a5.5,5.5,0,0,0-1.6-1.87,4.42,4.42,0,0,0-1.35,1.56c-24.16,34-48.84,67.67-73.21,101.54a3.17,3.17,0,0,1-2.85,1.69q-33-.1-66,0c-.24,0-.47,0-.82-.07,0-.88.7-1.4,1.13-2l99.77-137.67c1.92-2.66,3.86-5.3,5.77-8,1.17-1.63,1.24-1.26-.06-3q-11.18-15.3-22.38-30.58-40.29-55-80.59-110.11a6.74,6.74,0,0,1-1.27-2c.51-.49,1.09-.28,1.61-.28,22.79,0,45.59,0,68.39-.06a3.66,3.66,0,0,1,3.3,1.78q36.33,49,72.71,98.05a6.25,6.25,0,0,0,1.64,2c.54,0,.7-.44.92-.73,23.51-32,47.35-63.81,70-96.45.82-1.19,1.7-2.33,2.44-3.56a1.92,1.92,0,0,1,2-1c.55,0,1.12,0,1.68,0h64.83c.1,1-.61,1.5-1,2.1q-35.49,48.92-71,97.8-15.85,21.84-31.69,43.67c-1.87,2.59-1.86,1.61,0,4.17q42,58.54,84.09,117.05,9.32,12.94,18.61,25.9l1.79,2.5Z" transform="translate(-498 -281.88)"/><path class="cls-2" d="M636,430.8q-29.19,38.81-58.53,77.51-23.76,31.48-47.58,62.94L500.86,609.7a7.07,7.07,0,0,1-1.76,1.94,1,1,0,0,1-.36.08,1.83,1.83,0,0,1,.07-.32q18.19-24.12,36.4-48.22L636.7,428.92c.43-.57.83-1.16,1.34-1.86a4.5,4.5,0,0,0-2.56-.29H502.1l-3.12,0-1,0a2.58,2.58,0,0,1,.76-.46,1.38,1.38,0,0,1,.27-.08l.14,0a22.62,22.62,0,0,1,3-.07q65.73,0,131.47,0c1.53,0,3.68-.74,4.43.8C638.71,428.32,636.93,429.61,636,430.8Z" transform="translate(-498 -281.88)"/><path class="cls-3" d="M789.36,281.88c2,.76,4.24.42,6.36.9,12.32,2.75,21.87,11.09,24,26a24.67,24.67,0,0,1,0,8.57c-.63,3-2.21,4-5.22,3.28a32.51,32.51,0,0,1-5.39-2,51.56,51.56,0,0,0-7.38-2.78c-7.07-1.83-11,1.29-13.15,7.37a7.39,7.39,0,0,0,1,6.86,17.94,17.94,0,0,0,6.13,5.62c3.49,1.94,7,3.82,10.51,5.73.91.5,1.81,1,2.7,1.55.55.34,1.17.73.94,1.49-.19.58-.8.67-1.37.78a41.18,41.18,0,0,1-6.9.77c-5.67.18-11.33.52-17,.22a29.67,29.67,0,0,1-28.39-26.33c-1-7.45-.41-14.71,3.08-21.47,4.45-8.64,11.57-13.81,21.15-15.66,1.86-.36,3.81-.08,5.59-.88Z" transform="translate(-498 -281.88)"/><path class="cls-4" d="M499.27,425.1a4.59,4.59,0,0,1-.1,1.11,2,2,0,0,1-.19.52l-1,0V369.2l.54.07a3.67,3.67,0,0,1,.69,2.71C499.28,389.69,499.23,407.39,499.27,425.1Z" transform="translate(-498 -281.88)"/><path class="cls-4" d="M498,611.49l.81-.09c.63.66.46,1.49.46,2.27,0,15.13,0,30.26,0,45.4,0,1.25.23,2.57-.69,3.66l-.55.09Z" transform="translate(-498 -281.88)"/><path class="cls-1" d="M585.34,591.33l-10.06,13a4.27,4.27,0,0,0,2.63.33q39,0,78,0c3.41,0,2.9-.41,2.9,2.92q0,26.26,0,52.53a9.43,9.43,0,0,0,0,1.19c.12,1.09-.19,1.7-1.42,1.54a11.53,11.53,0,0,0-1.44,0H501.42c-1,0-1.92-.07-2.87-.11l0-48a13.11,13.11,0,0,1,.16-3,1.83,1.83,0,0,1,.07-.32q18.19-24.12,36.4-48.22L636.7,428.92c.43-.57.83-1.16,1.34-1.86a4.5,4.5,0,0,0-2.56-.29H502.1l-3.12,0a2.12,2.12,0,0,1-.22-.42,6.6,6.6,0,0,1-.17-2.62q0-26,0-52c0-.8,0-1.6,0-2.4,1,0,1.91-.12,2.87-.12h214c3.4,0,2.9-.47,2.9,2.9,0,15,0,30.06,0,45.09a6.85,6.85,0,0,1-1.53,4.57Q651.07,506.49,585.34,591.33Z" transform="translate(-498 -281.88)"/><path class="cls-1" d="M820,516q0,71.94,0,143.89c0,3.38.52,2.94-2.86,3H762.71c-3.07,0-2.62.34-2.62-2.71q0-144.12,0-288.25c0-.4,0-.81,0-1.2-.13-1.09.2-1.7,1.43-1.54a9.43,9.43,0,0,0,1.19,0h54.71c3,0,2.62-.29,2.62,2.73Q820,443.94,820,516Z" transform="translate(-498 -281.88)"/><path class="cls-3" d="M726.4,633.79q0,13.44,0,26.87c0,2.21,0,2.24-2.21,2.23l-54-.15c-2.12,0-2.15,0-2.14-2.35q.13-22.3.29-44.61c0-3.12,0-6.23,0-9.35,0-2,0-2,2-2,5.2,0,10.39.12,15.59.14q18.48.1,37,.17h1.68c2,0,2,0,2,2,0,5.28,0,10.55,0,15.83,0,3.76,0,7.52,0,11.27Z" transform="translate(-498 -281.88)"/></svg>