<svg id="Layer_1" data-name="Layer 1" xmlns="http://www.w3.org/2000/svg" viewBox="0 0 956.75 551.7"><defs><style>.cls-1{fill:none;}.cls-2{fill:#231f20;}</style></defs><path d="M341.86,683.47c-2.14-.83-4.22-2-6.45-2.46q-47.4-9.91-94.83-19.67c-4.13-.85-8.25-1.73-13.14-2.76-1.06,10.28-2.12,19.89-3,29.51-1,10.34-2.14,20.68-2.5,31a16.05,16.05,0,0,0,3.26,10.19c12.06,14.13,12.15,14,4.33,30.62-4.69,10-9.12,20.1-13.7,30.14a11.13,11.13,0,0,1-3.3,4.42,10.65,10.65,0,0,1-.17-2.09c1.9-20.52,3.87-41,5.69-61.54.2-2.21.27-5-.85-6.66-3.41-5.11-7.43-9.81-11.61-15.17-8.41,22-27,25.58-46.19,28.3-4.72.67-9.56.65-14.25,1.49-15.59,2.81-28-3.73-39.35-13.22-27.25-22.88-21-62,8.06-78.09,8.7-4.81,18.27-8.22,27.73-11.39,3.59-1.21,8.24-.78,12,.32,14.07,4.1,28,8.78,41.93,13.23a9,9,0,0,0,5.13.44c-4.67-3.11-9.29-6.31-14-9.31-10-6.35-20.06-12.67-30.18-18.84-4-2.43-5.92-5.62-6.54-10.33-5.93-45.26-12.06-90.49-18.12-135.74-1.22-9.1-2.37-18.21-3.61-27.84,3.18-.21,5.77-.46,8.36-.55,10.22-.37,20.43-.64,30.64-1.08,4.49-.19,7.7-5.05,6.05-9.06a3.46,3.46,0,0,0-2.24-1.6c-3-.61-6.1-1-9.7-1.56.66,7-3.09,7.74-8.27,6.65a38.82,38.82,0,0,0-5.92-.38c-4.47-.24-8.3-1-7.18-7.09.14-.81-1.4-2.63-2.4-2.83-4.33-.89-8.74-1.34-14-2.08,0,2.65.49,5-.15,7s-2.23,4.62-3.66,4.79a356,356,0,0,1-36.41,2.33c1.56-1.17,3-2.46,4.7-3.48,4.2-2.59,8.62-4.86,12.65-7.69,1.56-1.1,2.3-3.36,3.41-5.09a22.51,22.51,0,0,0-4.69-1.82c-7.29-1.14-14.6-2.08-22.64-3.19-.63,7.53-1,14.54-1.89,21.49-.34,2.6-1.25,5.76-3,7.43-6.75,6.27-14,12-21.05,18-.42.35-1.2.27-2.36.5.38-3.57.67-6.77,1.06-10C51,445.53,52.67,432.29,54.2,419c.35-3,1.62-3.95,4.55-3.4,4.82.91,9.68,1.59,15,2.44.38-4.56.26-8.9,1.22-13,.78-3.3,2-7.37,4.52-9.24,8.63-6.58,17.87-12.36,26.9-18.4.35-.24.94-.11,1.81-.18-.54,15.15-1.07,30.17-1.61,45.61L120.29,425c0-2.45.08-4.49,0-6.52-.54-12.36-1-24.72-1.78-37.06-.32-4.78,1.27-6.64,6-6.47,6.38.22,12.78.05,19.3.05,0,9,.11,17.36,0,25.7q-.19,11.86-.87,23.72c-.19,3.42,1.11,4.74,4.4,5s6.82.85,11.38,1.45c0-5-.09-9.52,0-14.05.27-11.54.72-23.07.81-34.61a5.82,5.82,0,0,0-2.71-4.35c-31.72-14.92-65.72-8.94-89,15.43C55.67,406,46.48,420.55,42.36,437.82c-5.47,23-.88,44.44,12.24,63.64,7.1,10.39,15.71,19.89,24.5,29,9.18,9.47,22.22,12.54,33.79,18,2,1,4,2.18,5.93,3.28l-.51,1.22H93.8l22.72,16.71-.67,1.37-29.13,2.29-.34,1.26,28.83,15.82-.5,1.89h-25l-.27,2.06,27.5,6.31-.16,1.46c-16.26.47-32,8.71-48.77,2.09,10.13-4.16,21.19-.38,31.47-3.25l.25-1.38L62,590.28l.09-.74h45.56L78,572.64l.1-1.47,32.55-2.56L86.73,551.26c.18-.39.37-.77.55-1.15H109c-4-2-7.2-3.92-10.64-5.12-15.11-5.25-26-15.88-35.94-27.75C51.49,504.18,42.84,489.83,39.32,473,33,442.87,43.15,417.5,62.56,395.05c32.23-37.3,83.51-35.06,117.56-5.17,12,10.52,20.28,23.31,22.72,39.39a18.7,18.7,0,0,1,.31,6.39c-2.23,10.74,1.77,20,6.08,29.41,2.79,6.06,5.11,12.35,8,19.46H202.46c.27,2.67.36,4.62.69,6.53q5.35,31.17,10.78,62.34c.34,2,.45,3.94.82,5.88.53,2.8-.57,3.92-3.37,4-15.33.48-30.65,1.13-46,1.46-1.54,0-4-1.36-4.52-2.69-5.1-13.16-9.87-26.44-15.11-40.73l47.13-1.58c-.76-6.34-1.54-12.16-2.16-18q-3.11-29.5-6.09-59c-.47-4.75-3.51-5.8-8-6.11-.4,2.28-.86,4.46-1.14,6.66-.5,3.84-2.17,5.55-6.46,5.58-11,.06-22.06.81-33.1,1.09-3.71.09-4.81,1.4-4.31,5.14q10.5,77.13,20.68,154.32c.72,5.48,3.2,8.94,7.71,11.75,17.22,10.68,34.33,21.54,51.45,32.38a20.39,20.39,0,0,1,6.43,5.9c-8.9-2.75-17.83-5.43-26.7-8.27-12.55-4-25-8.38-37.63-12.1a23.63,23.63,0,0,0-11.57-.42c-14.67,3.44-28.25,9.49-38.68,20.69C84.25,679.78,88.1,710,111.62,727c9.64,7,20.2,11.34,32.36,9.36,12.47-2,25-3.93,37.27-7,9.75-2.4,16.82-8.94,20.22-18.67.68-1.94.91-5-.15-6.43-6.86-9.33-14.14-18.35-21.28-27.47l-1.68.41c0,7.5.08,15,0,22.5-.09,5.77-.56,11.54-.59,17.31,0,3-1.12,4.44-4.2,4.81-5.54.66-11,1.64-17.78,2.67.68-14.34,1.34-28.33,2-42.31l-1-.6q-11.26,14.85-22.54,29.68l-1.74-.37c-1.74-7.59-4.07-15.11-5-22.79a75.72,75.72,0,0,1,0-21c1.58-9.76,8.18-15.62,18-16.05,12.62-.56,25,1.37,36.23,7.84,13.33,7.69,20.37,19.91,21.62,34.68,1,11.57,7.85,18.6,15.75,27.5.77-9.34,1.42-17.25,2.08-25.15,1-12.16,2.11-24.31,3.09-36.47.32-3.85,2.51-3.93,5.55-3.29q34.32,7.23,68.68,14.32c12.26,2.55,24.54,5,36.74,7.74,3.12.7,6,2.57,9,3.61a7.77,7.77,0,0,0,4.5.15,65.68,65.68,0,0,0,11.07-4.14c4.59-2.37,6.47-.39,8.1,3.64,2.59,6.41,5.67,12.61,8.24,19,1.38,3.46,3.19,4.24,7.05,4.14,11.38-.3,18.27-5.62,24.15-15.38,13.61-22.56,28.41-44.4,42.95-66.39,2.54-3.85,2.16-6.11-1.26-9-7.12-6.12-13.87-12.67-20.81-19-1.05-1-2.27-1.75-3.36-2.58-5.88,5.74-5.7,7.47-.06,12.43,9.37,8.23,9.11,4.78,2.56,15.26-10.65,17.05-21.48,34-32.28,50.93-1.85,2.89-3.95,5.62-6.23,8.85-7.61-5.65-15-10.88-21.93-16.58-.93-.76-.64-4.31.29-5.85,7.45-12.43,15.18-24.7,22.83-37q10.84-17.41,21.72-34.8c1.19-1.9,2.6-3.65,4.17-5.82l8.14,7.32c1.59-1.76,3.56-3.16,4.47-5.07,8.61-18,24.21-26.37,42.49-31.36,6.17-1.68,12.11-4.27,18.11-6.56,10.91-4.18,32.16-4.65,43.62-.87-1.76,6.63-8.09,13-13.57,12-15.41-2.86-28.46,3-41.43,9.78a15.08,15.08,0,0,0-5,3.49c5-.84,10.07-1.4,15-2.62,4.47-1.1,6.39.36,7.05,4.75,1,6.51,2.47,13,3.33,19.47a8.11,8.11,0,0,1-1.51,5.88,118.69,118.69,0,0,1-13.75,13.44c-2.22,1.77-5.79,2-8.82,2.53a74.4,74.4,0,0,1-8.44.54c.84,4.2,3,5.58,6.47,5.13,4.57-.58,9.38-.59,13.62-2.12a23.83,23.83,0,0,0,9.74-6.83c13.61-16.22,11-11.07,7.21-30.91-1-5-2.32-9.92-3.64-15.51a48.47,48.47,0,0,1,5.29-1.57,21.45,21.45,0,0,1,5.42-.4c11,.76,20.36-2.62,28.54-9.94,4.08-3.64,9-4.75,14.62-4.83,23.88-.31,47.75-1.07,71.63-1.58a38.88,38.88,0,0,1,6.36.93c0,.55,0,1.09,0,1.63a46.76,46.76,0,0,1-4.85.56c-18.64.27-37.27.42-55.9.81a69.37,69.37,0,0,0-13.71,1.6c-1.43.32-2.38,2.81-3.55,4.31,1.38.84,2.71,2.32,4.14,2.42,9.38.63,18.77.94,28.16,1.4,1.62.08,3.23.36,5.18.58-.79,5.45-1.82,10.56-2.2,15.72-1,13.38,2.87,25.11,13,34.27,13.74,12.41,37.71,15.32,54.32,6.92,2.61-1.33,3.25-3.06,3.39-5.84a198,198,0,0,1,2.76-25.27c3.57,21.6,2,43.33,1.88,66.09,7.66-3.81,12-9.21,14-16.46,2.21-8.09,4.11-16.28,6.15-24.43.32-1.28.35-2.73,1-3.8a59,59,0,0,1,4.09-5.3c.46,2.2,1.77,4.64,1.23,6.55-2.7,9.62-5.95,19.08-8.88,28.64-1.56,5.06-2.87,10.19-4.48,16,11.92,1.89,22.44,3.69,33,5.22,29,4.19,58,8.67,87.13,12.27,18.94,2.35,38,3.34,57.09,5,6.16.54,11-1.51,15.53-5.85,31.29-30.14,60.78-61.85,85.1-98,12.73-18.94,23.31-39,29-61.33,6.27-24.55-.72-46.6-12.32-67.8-9-16.41-20.39-30.92-36.07-41.34-7.48-5-16-8.4-24-12.46-3.22-1.63-4.73-.17-5.56,3.06-2.3,9.06.82,17.53,9.64,20,17.34,4.86,17.07,16.91,9.69,30.6-.61,1.13-1.22,2.26-1.47,2.71,6.91,1.05,13.82,1.91,20.64,3.25,2.32.46,4.54,1.93,6.58,3.28,6.91,4.62,7.3,9.26.15,13.64-7.4,4.52-15.55,7.84-23.46,11.5-10.89,5-21.92,9.79-32.76,14.94a27.17,27.17,0,0,0-7,5.47c-2.33,2.3-2,4.66,1.39,5.39,4.66,1,9.41,2.08,14.13,2.11,12.35.08,24.71-.42,37.06-.64,2,0,3.94.16,5.9.24.07.52.14,1,.2,1.55a20.2,20.2,0,0,1-3.17.95c-25.37,3.5-47.42,13.24-63.9,33.64-10.28,12.73-14.66,27.73-17.73,43.44a48,48,0,0,0,.61,22.31c2.54,9.57,1.14,19.33-.92,28.92-.8,3.7-1.58,7.41-2.66,11-.5,1.68-1.7,3.14-2.58,4.71l-1.77-.25c-.47-3.13-1.45-6.29-1.3-9.39.52-10.18,1.43-20.34,2.23-30.51.13-1.64.51-3.26.67-4.9,1.08-11.09,0-13.2-10.83-15.39-10.3-2.09-20.79-3.24-31.77-4.88-.28,4-.51,7.51-.78,11.05-.68,9-6.1,14.18-15.15,14.07-17.25-.22-33.49-5.42-49.39-11.3-17.13-6.33-33.82-13.84-50.78-20.64-4.24-1.7-8.82-2.55-13.18-4-4-1.33-8.23-2.46-11.91-4.48C661.8,562.8,651.94,556.85,642,551a44.16,44.16,0,0,1-4.44-3.46c.23-.4.46-.8.68-1.2,1.7.64,3.47,1.16,5.1,2,12.86,6.29,25.4,13.34,38.64,18.69,7.73,3.13,16.49,4.3,24.9,5.1,32.49,3.06,65,5.62,97.53,8.35,1.44.12,2.89,0,5.22,0-1.44-5.87-2.41-11.49-4.22-16.83-8.43-25-17.19-49.78-25.63-74.73-2.95-8.72-5.5-17.6-7.86-26.5-1.7-6.43-.35-10.12,5.39-13.4,8.85-5.06,17.88-9.87,27.13-14.17,7.46-3.47,9.29-2.17,9.55,6.14q1.28,41.77,2.22,83.57c.24,10.68,0,21.37,0,32.06l1.55.38c1.2-2,2.51-4,3.57-6.11,15.46-30.56,30.82-61.18,46.42-91.68,1.59-3.12,1.53-5.32-.3-8.1-3.28-4.94-6.29-10.05-9.35-15.14-.8-1.32-1.35-2.78-2.59-5.38,7,1.42,12.74,2.36,18.36,3.8,4.25,1.09,6.16-.09,7.5-4.37,5.49-17.6,11.3-35.11,17.16-52.6,1-3,.85-4.88-2.27-6.35-6.11-2.87-12.08-6-18.12-9-3.52-1.76-4.09,1-5.16,3.28-7.07,14.86-13.54,30.05-21.52,44.41-4.88,8.8-12,16.38-18.3,24.37-2.33,3-4.8,3-7.78.06-4.66-4.64-10-8.59-14.72-13.18-3-2.94-5.57-3.11-9-.9-7.66,4.89-16,7.67-25.26,7-7.74-.56-13.62-4.55-18.79-9.82-3.95-4-3.61-8.82-2.23-13.88,1.73-6.38.6-8.08-5.77-10l-.48-.13c-13.14-3.72-14-3.93-11.08-17,3.12-13.71.06-26.07-4.39-38.61-1.76-5-3.19-10-4.64-15.11-2.09-7.33-2.91-14.58,3.06-21.61-5.71.56-10.52,1.05-15.34,1.48-16.76,1.51-29.24-5.94-39.13-18.76-4.53-5.87-8.62-12.11-13.5-17.66-15.2-17.29-37.44-22.52-58.95-14.29-2.07.8-4.19,1.47-6.28,2.19-.23-.47-.45-.94-.68-1.42,2.16-1.16,4.22-2.64,6.51-3.43,26.21-9.09,50.3-1.16,67.43,22.11,2,2.66,3.81,5.39,5.69,8.09,12.57,18,27.79,24.19,49.22,19.4a45.76,45.76,0,0,0,13.66-5.28c15.48-9.48,31.46-9.86,47.89-3.44,6.89,2.69,13.47,6.16,20.27,9.1,1.31.57,3,.32,4.49.45-.35-1.51-.23-3.42-1.13-4.44-4.14-4.67-8-9.77-13-13.46-11.73-8.75-24.39-16.21-39.78-15-5.87.48-11.8,2.61-17.25,5-6.89,3-13.09,7.71-20,10.72-16,7-30.48,2.68-38.82-11-.32-.53-.48-1.16-1.13-2.71,3.64-.77,6.88-1.58,10.16-2.14,16.95-2.89,33.16-7.94,49.23-14.17,11.18-4.33,23.47-6.27,35.45-8,14.87-2.13,29.9-2.18,44.72,1.36,6.92,1.65,12.47,4.51,14.91,12,1,3.13,3.72,5.77,5.9,8.43,2.6,3.19,5.44,6.2,8.23,9.23a60.19,60.19,0,0,1,16.37,42.31c0,13-.37,26.05-.78,39.07-.21,6.91-3.83,10.48-10.76,9.8A90.87,90.87,0,0,1,839,362.77c-3.87-1.14-4.87-3.84-3.82-8.12,1.43-5.86,2.57-12,2.29-18-.19-3.88-2.16-8.74-5-11.2-6.84-5.87-11.53-4.78-15.28,1.38-2.9,4.76-5.43,9.75-8,14.69-1.14,2.18-1.93,4.54-3.08,6.72-4.14,7.83-7.45,8-12.58.64a31.42,31.42,0,0,1-2.06-3.38,47.9,47.9,0,0,0-19-20.21c-7.76-4.42-11.57-11.4-12.6-20.11-.24-1.95-.68-3.89-1.1-5.81-.73-3.3-3-5.05-6.13-4.26-5.21,1.32-10.65,2.54-15.29,5.09a13.24,13.24,0,0,0-6.78,15.17,166.83,166.83,0,0,0,5.63,20.43c5.22,14.53,8.29,29,3.84,44.44-1.78,6.17-.48,7.28,5.62,9.2,3.28,1,6.93,1.69,9.58,3.65,2,1.44,3.8,4.86,3.53,7.15-.67,5.62-3.5,10.9,1.86,16.07A26.29,26.29,0,0,0,782,424.09a39.32,39.32,0,0,0,21.26-8.46c4.42-3.44,8.8-6.93,13.26-10.31a23.31,23.31,0,0,1,3.58-1.86l.88,1.24L808.88,416l17.75,15.63c3,2.61,5.45,1,7.09-1.44,7.5-11.18,15.44-22.15,22-33.89,6.14-11.05,10.82-22.92,15.86-34.54,1.73-4,3.49-4.76,7.39-2.57,6.45,3.63,13.22,6.69,19.86,10,2.8,1.39,4.24,3,3,6.63-6.21,18.4-12.13,36.9-18.18,55.36-2.46,7.51-2.48,7.49-10,5.87-3.69-.8-7.39-1.55-11.09-2.28-.26-.05-.58.22-1.46.59,2.93,4.81,5.67,9.65,8.74,14.26,2.24,3.36,2.54,6.39.64,10.09Q845.62,508.32,820.94,557c-1.71,3.37-3.44,6.74-5.16,10.11l-2-.48c0-4.83.07-9.66,0-14.49q-.81-50.46-1.69-100.92c-.06-3.62-.65-7.23-.72-10.85-.07-4.23-2.35-4.64-5.53-3.44a64.83,64.83,0,0,0-7.65,3.45c-6.1,3.26-12.19,6.56-18.15,10.06-6.39,3.75-7.39,5.6-5.19,13q5.55,18.69,12.07,37.1c9,25.27,19.33,50.11,24.4,76.62.63,3.27,2.59,4.26,5.46,4.6,6.71.79,13.48,1.3,20.1,2.57,6.83,1.31,13.52,3.39,20.69,5.24,3.95-40.32,23.95-69.28,64-83.74-3.26,0-6.53.2-9.77,0-7.21-.51-14.47-.87-21.58-2.08-2.52-.42-6-2.8-6.55-4.9s1.63-5.93,3.71-7.21a237,237,0,0,1,24.18-13.23c10.72-5,21.92-9.07,32.61-14.17,3.41-1.63,5.86-5.26,8.75-8-3.18-2.44-6-5.84-9.6-7.14-10.4-3.79-20.32-4.08-29.18,4.81-6.44,6.47-14.06,11.75-21.16,17.56l-1.38-1.13c1-1.68,1.57-3.75,2.94-5,6.6-5.93,13.17-11.94,20.2-17.33,7.8-6,11.3-14,12.17-23.24.23-2.43-2.22-5.75-4.35-7.62-2.51-2.2-5.94-3.41-9.09-4.78a19.65,19.65,0,0,1-9.41-27c1.63-3.05,4-2.32,6.37-1.55a96.76,96.76,0,0,1,33.08,18.36C967,421.94,981.42,447.41,987.67,477c3.89,18.39-1.5,36.29-8.69,53.41-12.33,29.37-30.46,55.1-51.22,78.86-18.2,20.83-37.78,40.45-56.76,60.6-4.42,4.69-9.66,7.07-16.33,6.44-23.94-2.27-48-3.68-71.84-6.69-32.85-4.16-65.55-9.48-98.31-14.3-.81-.12-1.63-.24-2.44-.38-7.81-1.39-7.81-1.39-7.33-9.89-2.61,2-4.63,3.79-6.86,5.24-1.42.92-3.94,2.33-4.58,1.81a7.87,7.87,0,0,1-2.83-5.21c-.15-4.59.57-9.2.69-13.81.14-5.73,0-11.46,0-17.86-19.86,10.1-38.81,10.42-56.89-1.56-19.33-12.82-21.59-31.75-17.08-53.16a59,59,0,0,0-6.42-1c-7.91-.37-15.82-.59-23.73-.88-6.58-.24-7.58-1.5-6.66-8.23a27.94,27.94,0,0,0,0-3c-2.47.84-4.53,1.45-6.5,2.26A9.53,9.53,0,0,0,541,551.5c-9.33,8.67-20.27,12.52-33,11.36-1.59-.14-3.23.29-5.69.54,1.15,5.43,2.23,10.49,3.3,15.56,4.07,19.13,5.29,13.63-7.07,30.63-7.88,10.84-19.06,10-29.83,9.87-3.19,0-6.31-4.9-9.47-7.55l.69-1.78c3.85-.19,7.7-.6,11.54-.51,11.71.25,16.82-9.06,23.45-16.08.8-.85.71-2.89.49-4.3-.92-6-2-12-3.1-18-.67-3.67-3.23-2.9-5.75-2.46-11.8,2.08-23.62,4.11-35.87,5.17,2.17-1,4.32-2.17,6.53-3.13,12.67-5.54,25.39-11,38-16.58a29.69,29.69,0,0,1,17.85-2.07c6.38,1.17,12.23.77,15.61-7.27-11.16-.32-21.86-4.4-32.79-.48-14.27,5.11-28.42,10.53-42.68,15.67a25.11,25.11,0,0,0-13,10.06c-3.63,5.49-7.54,10.82-11.6,16-2,2.55-1.69,4.1.66,6.16,7.93,7,15.57,14.25,23.59,21.1,3.37,2.87,3.48,5.17,1.12,8.75-15.28,23.27-31,46.31-45.3,70.15-6.12,10.17-13.67,14.87-25,14.64a11.44,11.44,0,0,0-2.44.37,10,10,0,0,0-1.54.64l4.86,11.25-22.52,4.38c2.5,7.67,2.52,7.71-4.55,11.45-9.76,5.16-19.47,10.42-29.38,15.27a19,19,0,0,1-9.42,2.1c-23.16-1.91-46.29-4.2-69.43-6.33-4.19-.38-5.32-2.52-5.17-6.62q1.16-31.4,1.74-62.8c.08-4,1.48-4.68,5.09-3.93,22.74,4.69,45.53,9.11,68.25,13.88C327,688.24,334.36,688.16,341.86,683.47Zm458.32-330.7c2.12-3.87,3.57-6.39,4.91-9,3.1-6,5.7-12.28,9.34-17.91,5.54-8.55,11.48-9.51,19.34-2.92,2.89,2.42,5.56,6.68,5.83,10.29.51,6.75-.37,13.71-1.5,20.44-.73,4.32.27,6.66,4.38,7.67s8.27,2.35,12.48,2.84c5.51.63,8.69-2.15,8.82-7.48.37-14.17.68-28.34.7-42.51A47.33,47.33,0,0,0,855.37,286c-5.94-8.21-12.7-15.83-19.35-24-1.15,1.36-2,2.34-2.81,3.31-5.77,6.67-12.25,12.5-20.68,15.55-4.52,1.64-7.66-1.15-6.09-5.42,2.94-8,10.24-19.67,23.19-19a15,15,0,0,0,3.28-.57c-2-5.12-6.29-6.1-10.41-7.15-18.6-4.74-37.36-3.38-56-.49-8.54,1.32-16.85,4.26-25.16,6.83-12.08,3.73-24,8-36.11,11.61-5.94,1.77-12.16,2.59-18.31,3.85,3.62,8,13.33,13.26,22,12.3,11-1.2,20.37-6.19,29.33-12.22a39.31,39.31,0,0,1,30.11-6.34c14.55,2.66,26.94,9.54,37.53,19.63,3.76,3.59,6.86,7.91,9.95,12.13.76,1,1,3.7.24,4.37a6.93,6.93,0,0,1-5.15,1.84c-2.86-.5-5.52-2.06-8.3-3.06-9.71-3.51-19.28-7.55-29.22-10.27a28.45,28.45,0,0,0-22.22,2.83c8,1.62,10.54,3.83,11.18,11.7.75,9.39,4.91,16.07,13,20.75s14.17,11.63,18.46,20.11C795.26,346.93,797.5,349.18,800.18,352.77ZM343.07,687.18a40.79,40.79,0,0,1-25.23,2.07c-21.51-4.87-43.17-9-64.76-13.54-2.62-.55-4.44-.66-4.51,3Q247.93,708.84,247,739c-.12,3.62,1.46,4.36,4.63,4.63,17.07,1.47,34.12,3.25,51.2,4.71,6.86.59,14.53,2.68,20.5.48,12.27-4.52,23.69-11.4,35.32-17.57,1.07-.57,1.88-3.2,1.49-4.48-.32-1-2.64-2.23-4-2.12-5.24.45-10.45,1.3-15.64,2.18-2.87.48-4.25-.38-4.72-3.36-.79-5-1.88-10-2.9-15-1.43-7.06-1.45-7,5.07-9.92.75-.33,1.53-.6,2.29-.91C347.2,694.77,347.2,694.76,343.07,687.18ZM213.51,482.37c-4.18-10-8.21-18.78-11.52-27.86-1.46-4-1.55-8.55-2.09-12.88C199,434,199.45,426,197,418.88c-5.45-16.05-17-27.54-31.28-36.34a27.78,27.78,0,0,0-3.28-1.48,151.5,151.5,0,0,0,14.62,18.79c2.92,3.31,4.11,6.65,3.13,11.25-1.56,7.33-2.32,14.83-3.4,22.19,9.12,2,9.15,2,10.29,10.91.46,3.6.7,7.22,1.1,10.82,2.32,20.8,4.55,41.61,7.05,62.38.51,4.27-.75,5.41-4.94,5.4-11.87,0-23.74.42-35.61.72-1.54,0-3.07.31-5,.52,4.33,12,8.26,23.51,12.78,34.78.68,1.69,4.09,3.21,6.26,3.24,9.72.1,19.45-.31,29.17-.67,4.54-.16,9.06-.61,14.13-1-.41-3.12-.65-5.53-1.06-7.9-3.81-21.74-7.57-43.48-11.55-65.18-.69-3.75,0-5.28,4-5C206.36,482.53,209.31,482.37,213.51,482.37ZM158.53,721c4.69-.56,8.25-1.07,11.82-1.37,3.35-.29,4.88-1.74,4.9-5.33.06-10.22.4-20.44.7-30.66.13-4.47.42-8.93.64-13.39l1.15-.31L200.56,698c-1.29-16-6.59-29.26-21-37.25-9.25-5.12-19.25-6.59-29.53-7-12.94-.49-20.79,6-20.6,19,.16,10.28,2.43,20.53,3.84,30.78.09.64.81,1.2,1.63,2.34l24.88-33,1.19.63C160.14,689,159.36,704.48,158.53,721ZM388,675.44a40.33,40.33,0,0,0,3.73-4.36c11.9-18.59,23.7-37.24,35.61-55.82,1.4-2.19,1.58-3.84-.65-5.48a44,44,0,0,1-3.35-2.92c-7.19-6.5-7.32-6.59-2.41-14.67,2.18-3.57,0-5.49-2.37-6.74-1-.51-3.86.87-4.74,2.16-3.71,5.44-6.93,11.2-10.43,16.78-10.76,17.16-21.49,34.35-32.41,51.41-2.42,3.79-2.51,6.22,1.68,8.74s8,5.82,12,8.74C385.53,674,386.53,674.51,388,675.44ZM810.2,583.55l-109.43-9.72a4.18,4.18,0,0,0,2.59,2.62c21.8,8.28,43.41,17.09,65.49,24.53,9.34,3.15,19.61,3.84,29.54,4.78,6.27.59,10.22-3.24,11.17-9.48C810.15,592.41,810,588.43,810.2,583.55ZM140,428.23c.64-16.42,1.31-32.17,1.71-47.92,0-1-2.11-2.76-3.34-2.86-4.26-.33-8.57.08-12.84-.13-3.11-.15-4.09,1.17-4,4,.49,14.64.93,29.27,1.39,44.26ZM76.7,418.51l27.68,4.1v-41c-8.49,6-16.77,11.82-24.95,17.76a4.56,4.56,0,0,0-1.44,3C77.47,407.62,77.13,412.84,76.7,418.51Zm-19.56.06c-1.83,14.9-3.59,29.18-5.35,43.45l1.41.47C58.6,458,64,453.58,69.39,449a5.91,5.91,0,0,0,2.19-3.17c.92-8.28,1.61-16.58,2.39-25.11Zm116.71,14.84c1-6.12,2-11.92,3-17.71.89-5.33,2.33-10.53-2.59-15.11-4-3.7-7.24-8.15-11.78-13.38-.35,3.29-.61,4.85-.66,6.42-.27,8.54-.59,17.08-.72,25.62C160.87,431.34,160.94,431.34,173.85,433.41ZM358,721.18c-1.35-2.9-2.47-5.25-3.54-7.61-1.15-2.54-2.28-5.09-3.38-7.67-4.38-10.33-2.14-9-12.61-4.72-3.17,1.31-4.09,3.33-3.25,6.6,1.1,4.29,2.13,8.62,2.84,13,.49,3,1.78,3.81,4.7,3.18C347.59,722.89,352.46,722.17,358,721.18ZM216.21,778.79l1.66.27c4.7-10.48,9.44-20.94,14-31.46.54-1.24.94-3.24.32-4.16-3.2-4.76-6.76-9.29-10.19-13.9l-1.05.52Zm134-82c3.06,7,6,14.07,9.31,21,.57,1.21,2.44,2.73,3.54,2.6,5.8-.67,11.55-1.83,17.65-2.88-.58-1.54-1-2.59-1.36-3.63-1.58-4.18-3.54-7.28-9-5.07-2.94,1.2-5.38-.21-6.67-3.31-.88-2.12-1.95-4.15-2.93-6.22C357.62,692.62,356.72,692.39,350.2,696.81ZM375.32,705c-3.49-7.95-6.75-15.63-10.3-23.16a4.08,4.08,0,0,0-3.62-1.47c-5.14,1.58-10.16,3.54-15.7,5.54,2,2.95.62,8.42,6.67,6.51,7.2-2.28,7.18-2.36,10.39,4.4.7,1.48,1.35,3,2,4.49C367.23,706.71,368.39,707.19,375.32,705ZM809.24,277.92c7.31.07,19.23-9.1,23.36-17.69C823.09,256.41,810.92,265.45,809.24,277.92Zm-700,148.5-14.9,13.4c6.32-.44,12.28-.94,18.25-1.25,8.51-.44,9.42-1.65,7.33-10.91Zm749.9,179.21-1.63-.12q-1.35,16.77-2.68,33.55l1.9.14C859.56,628.15,862.25,617.1,859.18,605.63ZM143,431.12c-.64,4.07.1,6.53,4.4,6.76,2.29.12,4.6.8,6.85.61,1.45-.11,2.82-1.34,4.22-2.06-1.07-1.14-2-3-3.24-3.29C151.41,432.18,147.49,431.81,143,431.12Z" transform="translate(-32.22 -242.81)"/><path d="M56.7,778.22l.86-.12C51,763.54,44.67,750,38.78,736.23a36.19,36.19,0,0,1-3.14-12.79q-1-30.41-1.08-60.84a16,16,0,0,1,3-9c8.41-11.19,17.4-21.94,25.84-33.12a15,15,0,0,1,13-6.45c13.36,0,26.71-.2,40.07-.47,6.19-.12,12.36-.57,18.54-.87l.35-1.51a15.55,15.55,0,0,0-3.34-1.24c-6.06-.72-12.11-1.51-18.21-1.88-5.53-.33-11.55-1.52-16.56.1a66.14,66.14,0,0,1-22.79,3.35c-5.6-.18-9.31,2.1-12.56,6.29C53.14,629.14,44,640.21,35.46,651.71a17.58,17.58,0,0,0-3.24,9.92c0,20.44.28,40.9,1,61.33a46.93,46.93,0,0,0,3.59,15.67c4.27,10.53,9.29,20.74,14,31.1.78,1.73,1.3,3.57,2.22,6.16h-.22Z" transform="translate(-32.22 -242.81)"/><line class="cls-1" x1="125.79" y1="507.2" x2="122.28" y2="505.12"/><path class="cls-2" d="M170.23,713.11h-.34l-5.23-4.46,0,4.26h-.53l0-5.14h.34l5.24,4.46,0-4.42h.53Z" transform="translate(-32.22 -242.81)"/><path class="cls-2" d="M162.56,703.56h-.8v-.74h.81Zm7.73,0-6.13,0v-.59l6.14,0Z" transform="translate(-32.22 -242.81)"/><path class="cls-2" d="M172.29,693.13l-3.3,0a3,3,0,0,1,1.5,2.53,3,3,0,0,1-3.21,3h0a3.06,3.06,0,0,1-3.19-3,3,3,0,0,1,1.48-2.51h-1.32v-.59l8.06,0Zm-5-.07a2.57,2.57,0,0,0-2.65,2.49,2.4,2.4,0,0,0,2.61,2.42h0a2.46,2.46,0,0,0,2.66-2.39,2.57,2.57,0,0,0-2.61-2.52Z" transform="translate(-32.22 -242.81)"/><path class="cls-2" d="M170.43,683.43l-2.75,2.15,2.72,2.18v.71l-3.11-2.53-3,2.39v-.73l2.61-2.05-2.59-2.09v-.71l3,2.44,3.15-2.49Z" transform="translate(-32.22 -242.81)"/></svg>